<?xml version="1.0" encoding="utf-8"?>
<!-- Generator: Adobe Illustrator 16.0.0, SVG Export Plug-In . SVG Version: 6.00 Build 0)  -->
<!DOCTYPE svg PUBLIC "-//W3C//DTD SVG 1.1//EN" "http://www.w3.org/Graphics/SVG/1.1/DTD/svg11.dtd">
<svg version="1.1" id="Layer_1" xmlns="http://www.w3.org/2000/svg" xmlns:xlink="http://www.w3.org/1999/xlink" x="0px" y="0px"
	 width="298.678px" height="105.645px" viewBox="0 0 298.678 105.645" enable-background="new 0 0 298.678 105.645"
	 xml:space="preserve">
<g>
	<defs>
		<rect id="SVGID_1_" width="298.678" height="105.645"/>
	</defs>
	<clipPath id="SVGID_2_">
		<use xlink:href="#SVGID_1_"  overflow="visible"/>
	</clipPath>
	<path clip-path="url(#SVGID_2_)" fill="#FFFFFF" d="M82.933,38.108V24.392h5.981c3.2,0,4.801,1.317,4.801,3.95
		c0,2.731-1.598,4.097-4.792,4.097h-3.246v5.669H82.933z M85.677,29.878h3.84c1.104-0.018,1.671-0.521,1.701-1.509
		c-0.03-0.902-0.588-1.371-1.673-1.408h-3.868V29.878z"/>
	<path clip-path="url(#SVGID_2_)" fill="#FFFFFF" d="M103.806,32.128l3.42,5.98h-3.146l-3.283-5.669h-2.505v5.669h-2.744V24.392
		h5.981c3.2,0,4.801,1.317,4.801,3.95C106.33,30.323,105.488,31.585,103.806,32.128 M98.292,29.878h3.84
		c1.104-0.018,1.671-0.521,1.701-1.509c-0.03-0.902-0.588-1.371-1.673-1.408h-3.868V29.878z"/>
	<path clip-path="url(#SVGID_2_)" fill="#FFFFFF" d="M109.735,36.137c-1.311-1.314-1.966-2.943-1.966-4.887
		c0-1.952,0.655-3.582,1.966-4.893c1.311-1.31,2.941-1.966,4.892-1.966c1.951,0,3.581,0.656,4.892,1.966
		c1.311,1.311,1.966,2.941,1.966,4.893c0,1.95-0.655,3.581-1.966,4.892c-1.311,1.31-2.941,1.966-4.892,1.966
		C112.676,38.108,111.046,37.451,109.735,36.137 M114.636,35.547c1.213,0,2.201-0.411,2.963-1.234
		c0.762-0.823,1.143-1.844,1.143-3.063c0-1.22-0.381-2.241-1.143-3.064c-0.762-0.823-1.756-1.234-2.981-1.234
		c-1.213,0-2.201,0.411-2.963,1.234c-0.762,0.823-1.143,1.844-1.143,3.064c0,1.219,0.381,2.24,1.143,3.063
		C112.417,35.136,113.411,35.547,114.636,35.547"/>
	<polygon clip-path="url(#SVGID_2_)" fill="#FFFFFF" points="134.249,24.392 134.249,26.953 129.677,26.953 129.677,38.107 
		126.934,38.107 126.934,26.953 122.361,26.953 122.361,24.392 	"/>
	<polygon clip-path="url(#SVGID_2_)" fill="#FFFFFF" points="136.064,38.108 136.064,24.401 146.141,24.392 146.141,26.952 
		138.808,26.952 138.808,29.878 144.303,29.878 144.303,32.429 138.808,32.429 138.808,35.547 146.124,35.547 146.124,38.108 	"/>
	<path clip-path="url(#SVGID_2_)" fill="#FFFFFF" d="M150.009,36.137c-1.313-1.308-1.97-2.946-1.97-4.915
		c0.006-1.926,0.664-3.546,1.975-4.86c1.311-1.313,2.936-1.971,4.874-1.971c1.957,0,3.636,0.61,5.038,1.829l-1.828,2.003
		c-0.934-0.732-2.003-1.097-3.21-1.097c-1.231,0.006-2.224,0.39-2.977,1.152c-0.753,0.762-1.129,1.737-1.129,2.926
		c0.006,1.274,0.387,2.286,1.143,3.036s1.75,1.125,2.981,1.125s2.295-0.363,3.191-1.089l1.828,2.003
		c-1.396,1.219-3.075,1.829-5.038,1.829C152.949,38.102,151.323,37.445,150.009,36.137"/>
	<polygon clip-path="url(#SVGID_2_)" fill="#FFFFFF" points="173.885,24.392 173.885,26.953 169.312,26.953 169.312,38.107 
		166.569,38.107 166.569,26.953 161.997,26.953 161.997,24.392 	"/>
	<rect x="175.736" y="24.382" clip-path="url(#SVGID_2_)" fill="#FFFFFF" width="2.733" height="13.726"/>
	<path clip-path="url(#SVGID_2_)" fill="#FFFFFF" d="M182.308,36.137c-1.312-1.314-1.967-2.943-1.967-4.887
		c0-1.952,0.655-3.582,1.967-4.893c1.311-1.31,2.94-1.966,4.892-1.966s3.581,0.656,4.893,1.966c1.311,1.311,1.966,2.941,1.966,4.893
		c0,1.95-0.655,3.581-1.966,4.892c-1.312,1.31-2.941,1.966-4.893,1.966S183.618,37.451,182.308,36.137 M187.208,35.547
		c1.214,0,2.201-0.411,2.963-1.234c0.764-0.823,1.144-1.844,1.144-3.063c0-1.22-0.38-2.241-1.144-3.064
		c-0.762-0.823-1.756-1.234-2.98-1.234c-1.213,0-2.201,0.411-2.962,1.234c-0.764,0.823-1.145,1.844-1.145,3.064
		c0,1.219,0.381,2.24,1.145,3.063C184.989,35.136,185.983,35.547,187.208,35.547"/>
	<polygon clip-path="url(#SVGID_2_)" fill="#FFFFFF" points="195.909,38.108 195.909,24.392 196.823,24.392 205.419,32.987 
		205.419,24.392 208.162,24.392 208.162,38.108 207.156,38.108 198.652,29.604 198.652,38.108 	"/>
	<path clip-path="url(#SVGID_2_)" fill="#FFFFFF" d="M218.326,36.137c-1.312-1.308-1.97-2.946-1.97-4.915
		c0.006-1.926,0.664-3.546,1.975-4.86c1.311-1.313,2.936-1.971,4.874-1.971c1.957,0,3.636,0.61,5.038,1.829l-1.828,2.003
		c-0.934-0.732-2.003-1.097-3.21-1.097c-1.231,0.006-2.224,0.39-2.977,1.152c-0.753,0.762-1.129,1.737-1.129,2.926
		c0.006,1.274,0.387,2.286,1.143,3.036s1.75,1.125,2.981,1.125s2.295-0.363,3.191-1.089l1.828,2.003
		c-1.396,1.219-3.075,1.829-5.038,1.829C221.267,38.102,219.641,37.445,218.326,36.137"/>
	<rect x="231.01" y="24.382" clip-path="url(#SVGID_2_)" fill="#FFFFFF" width="2.734" height="13.726"/>
	<polygon clip-path="url(#SVGID_2_)" fill="#FFFFFF" points="238.394,24.392 242.29,34.44 246.258,24.392 249.184,24.392 
		243.706,38.107 240.963,38.107 235.468,24.392 	"/>
	<rect x="251.274" y="24.382" clip-path="url(#SVGID_2_)" fill="#FFFFFF" width="2.733" height="13.726"/>
	<polygon clip-path="url(#SVGID_2_)" fill="#FFFFFF" points="259.344,24.392 259.344,35.547 266.659,35.547 266.659,38.107 
		256.601,38.107 256.601,24.392 	"/>
	<polygon clip-path="url(#SVGID_2_)" fill="#FFFFFF" points="268.693,38.108 268.693,24.401 278.771,24.392 278.771,26.952 
		271.437,26.952 271.437,29.878 276.933,29.878 276.933,32.429 271.437,32.429 271.437,35.547 278.752,35.547 278.752,38.108 	"/>
	<path clip-path="url(#SVGID_2_)" fill="#FF7F2F" d="M82.896,57.221V43.959h5.781c3.095,0,4.642,1.274,4.642,3.82
		c0,2.64-1.544,3.961-4.633,3.961h-3.138v5.48H82.896z M85.547,49.265h3.713c1.067-0.018,1.615-0.504,1.644-1.459
		c-0.029-0.872-0.568-1.325-1.618-1.361h-3.739V49.265z"/>
	<path clip-path="url(#SVGID_2_)" fill="#FF7F2F" d="M94.664,57.222l5.304-13.262h2.652l5.296,13.253l-2.821,0.009l-0.795-2.034
		h-6.012l-0.796,2.034H94.664z M101.365,47.497l-2.016,5.039h3.978L101.365,47.497z"/>
	<path clip-path="url(#SVGID_2_)" fill="#FF7F2F" d="M118.333,51.439l3.306,5.782h-3.041l-3.174-5.48h-2.422v5.48h-2.652V43.959
		h5.781c3.095,0,4.642,1.274,4.642,3.82C120.772,49.695,119.959,50.915,118.333,51.439 M113.001,49.265h3.713
		c1.067-0.018,1.615-0.504,1.644-1.459c-0.029-0.872-0.568-1.325-1.618-1.361h-3.739V49.265z"/>
	<rect x="123.923" y="43.951" clip-path="url(#SVGID_2_)" fill="#FF7F2F" width="2.644" height="13.271"/>
	<path clip-path="url(#SVGID_2_)" fill="#FF7F2F" d="M136.497,44.402c0.678,0.295,1.311,0.737,1.9,1.326l-1.768,1.769
		c-0.589-0.708-1.414-1.062-2.475-1.062c-1.061,0-1.739,0.251-2.033,0.752c-0.295,0.501-0.295,0.928,0,1.281
		c0.294,0.355,0.972,0.62,2.033,0.796c1.119,0.118,2.136,0.487,3.05,1.106c0.913,0.618,1.37,1.605,1.37,2.961
		c0,1.061-0.487,1.974-1.463,2.741c-0.975,0.768-2.111,1.149-3.408,1.149c-1.231,0-2.26-0.176-3.085-0.53
		c-0.826-0.354-1.533-0.824-2.122-1.415l1.768-1.768c0.589,0.707,1.591,1.12,3.005,1.238c1.179,0,1.915-0.251,2.207-0.752
		c0.292-0.5,0.292-1.001,0-1.503c-0.292-0.5-1.028-0.81-2.207-0.928c-1.06-0.118-2.032-0.442-2.917-0.973
		c-0.883-0.53-1.325-1.443-1.325-2.74c0-1.173,0.502-2.114,1.507-2.825c1.005-0.71,2.038-1.065,3.099-1.065
		C134.864,43.96,135.819,44.107,136.497,44.402"/>
	<path clip-path="url(#SVGID_2_)" fill="#FF7F2F" d="M154.491,44.402c0.678,0.295,1.312,0.737,1.901,1.326l-1.769,1.769
		c-0.59-0.708-1.414-1.062-2.476-1.062c-1.061,0-1.738,0.251-2.033,0.752s-0.295,0.928,0,1.281c0.295,0.355,0.973,0.62,2.033,0.796
		c1.12,0.118,2.137,0.487,3.05,1.106c0.914,0.618,1.371,1.605,1.371,2.961c0,1.061-0.488,1.974-1.464,2.741
		c-0.976,0.768-2.111,1.149-3.408,1.149c-1.231,0-2.26-0.176-3.085-0.53c-0.825-0.354-1.532-0.824-2.122-1.415l1.769-1.768
		c0.588,0.707,1.59,1.12,3.005,1.238c1.179,0,1.915-0.251,2.206-0.752c0.292-0.5,0.292-1.001,0-1.503
		c-0.291-0.5-1.027-0.81-2.206-0.928c-1.061-0.118-2.033-0.442-2.918-0.973c-0.883-0.53-1.325-1.443-1.325-2.74
		c0-1.173,0.502-2.114,1.507-2.825c1.005-0.71,2.038-1.065,3.099-1.065C152.858,43.96,153.813,44.107,154.491,44.402"/>
	<polygon clip-path="url(#SVGID_2_)" fill="#FF7F2F" points="158.994,57.221 158.994,43.969 168.736,43.959 168.736,46.436 
		161.646,46.436 161.646,49.265 166.959,49.265 166.959,51.731 161.646,51.731 161.646,54.746 168.719,54.746 168.719,57.221 	"/>
	<rect x="171.496" y="43.951" clip-path="url(#SVGID_2_)" fill="#FF7F2F" width="2.644" height="13.271"/>
	<polygon clip-path="url(#SVGID_2_)" fill="#FF7F2F" points="176.892,57.221 176.892,43.959 177.775,43.959 186.086,52.271 
		186.086,43.959 188.738,43.959 188.738,57.221 187.766,57.221 179.544,49 179.544,57.221 	"/>
	<polygon clip-path="url(#SVGID_2_)" fill="#FF7F2F" points="191.543,57.221 191.543,43.969 201.285,43.959 201.285,46.436 
		194.194,46.436 194.194,49.265 199.508,49.265 199.508,51.731 194.194,51.731 194.194,54.746 201.268,54.746 201.268,57.221 	"/>
	<path clip-path="url(#SVGID_2_)" fill="#FFFFFF" d="M76.965,50.351c0,15.897-12.885,28.784-28.782,28.784
		c-15.899,0-28.784-12.887-28.784-28.784c0-15.897,12.885-28.783,28.784-28.783C64.08,21.568,76.965,34.454,76.965,50.351"/>
	<path clip-path="url(#SVGID_2_)" fill="#FF7F2F" d="M64.845,42.434c7.08,13.132,7.431,23.313,7.442,23.683
		c2.968-4.53,4.7-9.944,4.7-15.764c0-15.91-12.894-28.806-28.804-28.807C48.184,21.547,57.632,29.057,64.845,42.434"/>
	<path clip-path="url(#SVGID_2_)" fill="#FF7F2F" d="M47.955,69.098c-14.655-0.05-23.556-2.86-23.864-2.959
		c5.147,7.839,14.011,13.018,24.09,13.018c10.08,0,18.944-5.179,24.091-13.018C71.961,66.237,62.62,69.147,47.955,69.098"/>
	<path clip-path="url(#SVGID_2_)" fill="#FF7F2F" d="M31.519,42.434c7.249-13.588,16.663-20.888,16.664-20.888h-0.002
		c-15.91,0-28.805,12.896-28.805,28.806c0,5.821,1.732,11.234,4.701,15.765C24.085,65.75,24.405,55.771,31.519,42.434"/>
	<polygon clip-path="url(#SVGID_2_)" fill="#002D73" points="31.492,61.749 48.182,31.183 64.871,61.749 	"/>
	<path clip-path="url(#SVGID_2_)" fill="#FFFFFF" d="M169.624,76.494l3.516-8.789h1.758l3.51,8.783l-1.869,0.006l-0.527-1.347
		h-3.984l-0.527,1.347H169.624z M174.065,70.048l-1.336,3.341h2.637L174.065,70.048z"/>
	<path clip-path="url(#SVGID_2_)" fill="#FFFFFF" d="M181.105,72.767v3.728h-1.641v-5.69l1.641-0.176v0.534
		c0.395-0.353,0.863-0.528,1.406-0.528c0.742,0,1.309,0.226,1.699,0.674c0.391,0.449,0.586,0.968,0.586,1.554v3.633h-1.641v-3.223
		c0-0.392-0.098-0.693-0.293-0.908s-0.49-0.328-0.885-0.34C181.639,72.046,181.348,72.294,181.105,72.767"/>
	<path clip-path="url(#SVGID_2_)" fill="#FFFFFF" d="M188.702,76.494c-0.664,0-1.191-0.186-1.582-0.557s-0.586-0.849-0.586-1.435
		v-2.537h-0.879V70.64h0.879v-1.587l1.647-0.176v1.763h0.878v1.325h-0.878v2.302c0,0.312,0.064,0.533,0.195,0.66
		s0.3,0.189,0.507,0.189c0.062,0,0.209-0.024,0.439-0.075l0.346,1.178C189.389,76.402,189.065,76.494,188.702,76.494"/>
	<path clip-path="url(#SVGID_2_)" fill="#FFFFFF" d="M190.235,73.564c0-0.859,0.273-1.562,0.82-2.109
		c0.547-0.547,1.25-0.819,2.109-0.819s1.543,0.272,2.051,0.819c0.508,0.548,0.762,1.25,0.762,2.109v0.586h-4.043
		c0.039,0.313,0.176,0.557,0.41,0.733c0.234,0.176,0.508,0.263,0.82,0.263c0.547,0,1.035-0.156,1.466-0.468l0.937,0.937
		c-0.43,0.586-1.23,0.879-2.402,0.879c-0.859,0-1.562-0.272-2.109-0.819S190.235,74.424,190.235,73.564 M193.985,72.246
		c-0.234-0.176-0.508-0.264-0.82-0.264s-0.586,0.088-0.82,0.264c-0.234,0.177-0.352,0.421-0.352,0.732h2.344
		C194.337,72.667,194.22,72.422,193.985,72.246"/>
	<path clip-path="url(#SVGID_2_)" fill="#FFFFFF" d="M198.787,72.767v3.728h-1.641v-5.69l1.641-0.176v0.534
		c0.396-0.353,0.863-0.528,1.406-0.528c0.742,0,1.309,0.226,1.699,0.674c0.391,0.449,0.586,0.968,0.586,1.554v3.633h-1.641v-3.223
		c0-0.392-0.098-0.693-0.293-0.908s-0.489-0.328-0.885-0.34C199.32,72.046,199.029,72.294,198.787,72.767"/>
	<path clip-path="url(#SVGID_2_)" fill="#FFFFFF" d="M205.376,72.767v3.728h-1.641v-5.69l1.641-0.176v0.534
		c0.396-0.353,0.863-0.528,1.406-0.528c0.742,0,1.309,0.226,1.699,0.674c0.391,0.449,0.586,0.968,0.586,1.554v3.633h-1.641v-3.223
		c0-0.392-0.098-0.693-0.293-0.908s-0.489-0.328-0.885-0.34C205.909,72.046,205.618,72.294,205.376,72.767"/>
	<path clip-path="url(#SVGID_2_)" fill="#FFFFFF" d="M210.014,73.564c0-0.859,0.273-1.562,0.82-2.109
		c0.547-0.547,1.25-0.819,2.109-0.819s1.543,0.272,2.051,0.819c0.508,0.548,0.762,1.25,0.762,2.109v0.586h-4.043
		c0.039,0.313,0.176,0.557,0.41,0.733c0.234,0.176,0.508,0.263,0.82,0.263c0.547,0,1.035-0.156,1.465-0.468l0.938,0.937
		c-0.43,0.586-1.23,0.879-2.402,0.879c-0.859,0-1.562-0.272-2.109-0.819S210.014,74.424,210.014,73.564 M213.764,72.246
		c-0.234-0.176-0.508-0.264-0.82-0.264s-0.586,0.088-0.82,0.264c-0.234,0.177-0.352,0.421-0.352,0.732h2.344
		C214.115,72.667,213.998,72.422,213.764,72.246"/>
	<path clip-path="url(#SVGID_2_)" fill="#FFFFFF" d="M226.468,67.71v8.783h-1.641v-0.468c-0.437,0.312-0.867,0.468-1.289,0.468
		c-0.898,0-1.612-0.293-2.14-0.879s-0.791-1.269-0.791-2.05c0-0.782,0.264-1.465,0.791-2.051c0.527-0.587,1.241-0.88,2.14-0.88
		c0.586,0.039,1.016,0.197,1.289,0.476v-3.405L226.468,67.71z M224.827,74.091v-0.948c-0.078-0.656-0.488-1.041-1.229-1.155
		c-0.939,0.075-1.467,0.561-1.583,1.459c0.038,1.094,0.565,1.661,1.583,1.7C224.339,75.029,224.749,74.677,224.827,74.091"/>
	<path clip-path="url(#SVGID_2_)" fill="#FFFFFF" d="M227.478,73.564c0-0.859,0.273-1.562,0.82-2.109
		c0.547-0.547,1.25-0.819,2.109-0.819s1.543,0.272,2.051,0.819c0.508,0.548,0.762,1.25,0.762,2.109v0.586h-4.043
		c0.039,0.313,0.176,0.557,0.41,0.733c0.234,0.176,0.508,0.263,0.82,0.263c0.548,0,1.035-0.156,1.466-0.468l0.937,0.937
		c-0.43,0.586-1.229,0.879-2.402,0.879c-0.859,0-1.562-0.272-2.109-0.819S227.478,74.424,227.478,73.564 M231.228,72.246
		c-0.234-0.176-0.508-0.264-0.82-0.264s-0.586,0.088-0.82,0.264c-0.234,0.177-0.352,0.421-0.352,0.732h2.345
		C231.58,72.667,231.462,72.422,231.228,72.246"/>
	<path clip-path="url(#SVGID_2_)" fill="#FFFFFF" d="M238.505,76.494v-8.789h3.832c2.051,0,3.076,0.844,3.076,2.532
		c0,1.75-1.023,2.625-3.07,2.625h-2.08v3.632H238.505z M240.263,71.22h2.461c0.707-0.012,1.07-0.334,1.09-0.967
		c-0.02-0.578-0.377-0.879-1.071-0.901h-2.479V71.22z"/>
	<path clip-path="url(#SVGID_2_)" fill="#FFFFFF" d="M246.564,71.338c0.743-0.469,1.602-0.704,2.578-0.704
		c0.703,0,1.26,0.196,1.67,0.586c0.411,0.391,0.615,0.977,0.615,1.758v3.517h-1.641v-0.47c-0.477,0.313-0.906,0.47-1.289,0.47
		c-0.781,0-1.367-0.166-1.758-0.498s-0.586-0.791-0.586-1.377c0-0.548,0.185-1.035,0.554-1.466c0.369-0.43,0.966-0.645,1.79-0.645
		c0.379,0,0.81,0.118,1.289,0.352v-0.176c-0.008-0.429-0.32-0.664-0.937-0.703c-0.704,0-1.251,0.117-1.642,0.353L246.564,71.338z
		 M249.787,74.736v-0.661c-0.156-0.302-0.527-0.451-1.113-0.451c-0.703,0.078-1.074,0.351-1.113,0.819
		c0.039,0.466,0.41,0.718,1.113,0.757C249.26,75.2,249.631,75.045,249.787,74.736"/>
	<path clip-path="url(#SVGID_2_)" fill="#FFFFFF" d="M254.285,71.279c0.418-0.43,0.928-0.645,1.529-0.645
		c0.191,0,0.373,0.016,0.545,0.047l-0.258,1.618c-0.191-0.172-0.465-0.264-0.82-0.276c-0.398,0.027-0.73,0.317-0.996,0.867v3.604
		h-1.641v-5.69l1.641-0.175V71.279z"/>
	<path clip-path="url(#SVGID_2_)" fill="#FFFFFF" d="M257.493,68.64c0.156-0.159,0.367-0.238,0.633-0.238
		c0.281,0,0.5,0.079,0.656,0.238c0.157,0.158,0.234,0.354,0.234,0.588c0,0.235-0.077,0.43-0.234,0.586
		c-0.156,0.157-0.371,0.235-0.645,0.235s-0.488-0.078-0.645-0.235c-0.156-0.156-0.234-0.351-0.234-0.586
		C257.259,68.994,257.337,68.798,257.493,68.64 M258.958,70.629h-1.641v5.864h1.641V70.629z"/>
	<path clip-path="url(#SVGID_2_)" fill="#FFFFFF" d="M263.578,70.798c0.305,0.134,0.59,0.33,0.855,0.593l-0.914,1.03
		c-0.266-0.315-0.598-0.475-0.996-0.475c-0.395,0-0.658,0.074-0.791,0.22c-0.133,0.147-0.133,0.279,0,0.399
		c0.133,0.119,0.396,0.217,0.791,0.296c0.582,0.054,1.059,0.22,1.43,0.498c0.371,0.277,0.557,0.759,0.557,1.447
		c0,0.554-0.219,0.983-0.656,1.289c-0.438,0.305-0.947,0.456-1.529,0.456c-0.555,0-1.017-0.078-1.386-0.236
		c-0.369-0.159-0.687-0.371-0.952-0.636l0.908-1.026c0.266,0.317,0.678,0.5,1.236,0.551c0.449,0,0.739-0.073,0.87-0.219
		c0.131-0.147,0.15-0.293,0.059-0.44c-0.092-0.146-0.401-0.245-0.929-0.296c-0.477-0.055-0.913-0.201-1.31-0.438
		c-0.396-0.239-0.595-0.688-0.595-1.349c0-0.604,0.226-1.066,0.677-1.386c0.451-0.318,0.915-0.477,1.392-0.477
		C262.846,70.6,263.273,70.666,263.578,70.798"/>
	<polygon clip-path="url(#SVGID_2_)" fill="#FFFFFF" points="271.6,67.705 271.6,67.699 273.352,67.699 273.352,76.494 
		271.6,76.494 271.6,70.049 270.428,71.221 269.256,70.049 	"/>
	<polygon clip-path="url(#SVGID_2_)" fill="#FFFFFF" points="277.028,67.705 277.028,67.699 278.78,67.699 278.78,76.494 
		277.028,76.494 277.028,70.049 275.856,71.221 274.685,70.049 	"/>
	
		<line clip-path="url(#SVGID_2_)" fill="none" stroke="#FFFFFF" stroke-width="0.5" stroke-miterlimit="10" x1="83.143" y1="63.23" x2="83.141" y2="76.268"/>
	
		<line clip-path="url(#SVGID_2_)" fill="none" stroke="#FFFFFF" stroke-width="0.5" stroke-miterlimit="10" x1="82.886" y1="76.244" x2="166.565" y2="76.241"/>
</g>
</svg>
