<?xml version="1.0" encoding="utf-8"?>
<!-- Generator: Adobe Illustrator 16.0.0, SVG Export Plug-In . SVG Version: 6.00 Build 0)  -->
<!DOCTYPE svg PUBLIC "-//W3C//DTD SVG 1.1//EN" "http://www.w3.org/Graphics/SVG/1.1/DTD/svg11.dtd">
<svg version="1.1" id="Layer_1" xmlns="http://www.w3.org/2000/svg" xmlns:xlink="http://www.w3.org/1999/xlink" x="0px" y="0px"
	 width="298.678px" height="75px" viewBox="0 0 298.678 75" enable-background="new 0 0 298.678 75" xml:space="preserve">
<g>
	<defs>
		<rect id="SVGID_1_" width="298.678" height="75"/>
	</defs>
	<clipPath id="SVGID_2_">
		<use xlink:href="#SVGID_1_"  overflow="visible"/>
	</clipPath>
	<path clip-path="url(#SVGID_2_)" fill="#FFFFFF" d="M82.933,24.798V11.082h5.981c3.2,0,4.801,1.317,4.801,3.95
		c0,2.731-1.598,4.097-4.792,4.097h-3.246v5.669H82.933z M85.677,16.568h3.84c1.104-0.018,1.671-0.521,1.701-1.509
		c-0.03-0.902-0.588-1.371-1.673-1.408h-3.868V16.568z"/>
	<path clip-path="url(#SVGID_2_)" fill="#FFFFFF" d="M103.806,18.818l3.42,5.98h-3.146l-3.283-5.669h-2.505v5.669h-2.744V11.082
		h5.981c3.2,0,4.801,1.317,4.801,3.95C106.33,17.013,105.488,18.275,103.806,18.818 M98.292,16.568h3.84
		c1.104-0.018,1.671-0.521,1.701-1.509c-0.03-0.902-0.588-1.371-1.673-1.408h-3.868V16.568z"/>
	<path clip-path="url(#SVGID_2_)" fill="#FFFFFF" d="M109.735,22.827c-1.311-1.314-1.966-2.943-1.966-4.887
		c0-1.952,0.655-3.582,1.966-4.893c1.311-1.31,2.941-1.966,4.892-1.966c1.951,0,3.581,0.656,4.892,1.966
		c1.311,1.311,1.966,2.941,1.966,4.893c0,1.95-0.655,3.581-1.966,4.892c-1.311,1.31-2.941,1.966-4.892,1.966
		C112.676,24.798,111.046,24.141,109.735,22.827 M114.636,22.237c1.213,0,2.201-0.411,2.963-1.234
		c0.762-0.823,1.143-1.844,1.143-3.063c0-1.22-0.381-2.241-1.143-3.064c-0.762-0.823-1.756-1.234-2.981-1.234
		c-1.213,0-2.201,0.411-2.963,1.234c-0.762,0.823-1.143,1.844-1.143,3.064c0,1.219,0.381,2.24,1.143,3.063
		C112.417,21.826,113.411,22.237,114.636,22.237"/>
	<polygon clip-path="url(#SVGID_2_)" fill="#FFFFFF" points="134.249,11.082 134.249,13.643 129.677,13.643 129.677,24.797 
		126.934,24.797 126.934,13.643 122.361,13.643 122.361,11.082 	"/>
	<polygon clip-path="url(#SVGID_2_)" fill="#FFFFFF" points="136.064,24.798 136.064,11.091 146.141,11.082 146.141,13.642 
		138.808,13.642 138.808,16.568 144.303,16.568 144.303,19.119 138.808,19.119 138.808,22.237 146.124,22.237 146.124,24.798 	"/>
	<path clip-path="url(#SVGID_2_)" fill="#FFFFFF" d="M150.009,22.827c-1.313-1.308-1.97-2.946-1.97-4.915
		c0.006-1.926,0.664-3.546,1.975-4.86c1.311-1.313,2.936-1.971,4.874-1.971c1.957,0,3.636,0.61,5.038,1.829l-1.828,2.003
		c-0.934-0.732-2.003-1.097-3.21-1.097c-1.231,0.006-2.224,0.39-2.977,1.152c-0.753,0.762-1.129,1.737-1.129,2.926
		c0.006,1.274,0.387,2.286,1.143,3.036s1.75,1.125,2.981,1.125s2.295-0.363,3.191-1.089l1.828,2.003
		c-1.396,1.219-3.075,1.829-5.038,1.829C152.949,24.792,151.323,24.135,150.009,22.827"/>
	<polygon clip-path="url(#SVGID_2_)" fill="#FFFFFF" points="173.885,11.082 173.885,13.643 169.312,13.643 169.312,24.797 
		166.569,24.797 166.569,13.643 161.997,13.643 161.997,11.082 	"/>
	<rect x="175.736" y="11.072" clip-path="url(#SVGID_2_)" fill="#FFFFFF" width="2.733" height="13.726"/>
	<path clip-path="url(#SVGID_2_)" fill="#FFFFFF" d="M182.308,22.827c-1.312-1.314-1.967-2.943-1.967-4.887
		c0-1.952,0.655-3.582,1.967-4.893c1.311-1.31,2.94-1.966,4.892-1.966s3.581,0.656,4.893,1.966c1.311,1.311,1.966,2.941,1.966,4.893
		c0,1.95-0.655,3.581-1.966,4.892c-1.312,1.31-2.941,1.966-4.893,1.966S183.618,24.141,182.308,22.827 M187.208,22.237
		c1.214,0,2.201-0.411,2.963-1.234c0.764-0.823,1.144-1.844,1.144-3.063c0-1.22-0.38-2.241-1.144-3.064
		c-0.762-0.823-1.756-1.234-2.98-1.234c-1.213,0-2.201,0.411-2.962,1.234c-0.764,0.823-1.145,1.844-1.145,3.064
		c0,1.219,0.381,2.24,1.145,3.063C184.989,21.826,185.983,22.237,187.208,22.237"/>
	<polygon clip-path="url(#SVGID_2_)" fill="#FFFFFF" points="195.909,24.798 195.909,11.082 196.823,11.082 205.419,19.677 
		205.419,11.082 208.162,11.082 208.162,24.798 207.156,24.798 198.652,16.294 198.652,24.798 	"/>
	<path clip-path="url(#SVGID_2_)" fill="#FFFFFF" d="M218.326,22.827c-1.312-1.308-1.97-2.946-1.97-4.915
		c0.006-1.926,0.664-3.546,1.975-4.86c1.311-1.313,2.936-1.971,4.874-1.971c1.957,0,3.636,0.61,5.038,1.829l-1.828,2.003
		c-0.934-0.732-2.003-1.097-3.21-1.097c-1.231,0.006-2.224,0.39-2.977,1.152c-0.753,0.762-1.129,1.737-1.129,2.926
		c0.006,1.274,0.387,2.286,1.143,3.036s1.75,1.125,2.981,1.125s2.295-0.363,3.191-1.089l1.828,2.003
		c-1.396,1.219-3.075,1.829-5.038,1.829C221.267,24.792,219.641,24.135,218.326,22.827"/>
	<rect x="231.01" y="11.072" clip-path="url(#SVGID_2_)" fill="#FFFFFF" width="2.734" height="13.726"/>
	<polygon clip-path="url(#SVGID_2_)" fill="#FFFFFF" points="238.394,11.082 242.29,21.13 246.258,11.082 249.184,11.082 
		243.706,24.797 240.963,24.797 235.468,11.082 	"/>
	<rect x="251.274" y="11.072" clip-path="url(#SVGID_2_)" fill="#FFFFFF" width="2.733" height="13.726"/>
	<polygon clip-path="url(#SVGID_2_)" fill="#FFFFFF" points="259.344,11.082 259.344,22.237 266.659,22.237 266.659,24.797 
		256.601,24.797 256.601,11.082 	"/>
	<polygon clip-path="url(#SVGID_2_)" fill="#FFFFFF" points="268.693,24.798 268.693,11.091 278.771,11.082 278.771,13.642 
		271.437,13.642 271.437,16.568 276.933,16.568 276.933,19.119 271.437,19.119 271.437,22.237 278.752,22.237 278.752,24.798 	"/>
	<path clip-path="url(#SVGID_2_)" fill="#FFFFFF" d="M82.896,43.911V30.649h5.781c3.095,0,4.642,1.274,4.642,3.82
		c0,2.64-1.544,3.961-4.633,3.961h-3.138v5.48H82.896z M85.547,35.955h3.713c1.067-0.018,1.615-0.504,1.644-1.459
		c-0.029-0.872-0.568-1.325-1.618-1.361h-3.739V35.955z"/>
	<path clip-path="url(#SVGID_2_)" fill="#FFFFFF" d="M94.664,43.912l5.304-13.262h2.652l5.296,13.253l-2.821,0.009l-0.795-2.034
		h-6.012l-0.796,2.034H94.664z M101.365,34.187l-2.016,5.039h3.978L101.365,34.187z"/>
	<path clip-path="url(#SVGID_2_)" fill="#FFFFFF" d="M118.333,38.129l3.306,5.782h-3.041l-3.174-5.48h-2.422v5.48h-2.652V30.649
		h5.781c3.095,0,4.642,1.274,4.642,3.82C120.772,36.385,119.959,37.604,118.333,38.129 M113.001,35.955h3.713
		c1.067-0.018,1.615-0.504,1.644-1.459c-0.029-0.872-0.568-1.325-1.618-1.361h-3.739V35.955z"/>
	<rect x="123.923" y="30.641" clip-path="url(#SVGID_2_)" fill="#FFFFFF" width="2.644" height="13.271"/>
	<path clip-path="url(#SVGID_2_)" fill="#FFFFFF" d="M136.497,31.092c0.678,0.295,1.311,0.737,1.9,1.326l-1.768,1.769
		c-0.589-0.708-1.414-1.062-2.475-1.062c-1.061,0-1.739,0.251-2.033,0.752c-0.295,0.501-0.295,0.928,0,1.281
		c0.294,0.355,0.972,0.62,2.033,0.796c1.119,0.118,2.136,0.487,3.05,1.106c0.913,0.618,1.37,1.605,1.37,2.961
		c0,1.061-0.487,1.974-1.463,2.741c-0.975,0.768-2.111,1.149-3.408,1.149c-1.231,0-2.26-0.176-3.085-0.53
		c-0.826-0.354-1.533-0.824-2.122-1.415l1.768-1.768c0.589,0.707,1.591,1.12,3.005,1.238c1.179,0,1.915-0.251,2.207-0.752
		c0.292-0.5,0.292-1.001,0-1.503c-0.292-0.5-1.028-0.81-2.207-0.928c-1.06-0.118-2.032-0.442-2.917-0.973
		c-0.883-0.53-1.325-1.443-1.325-2.74c0-1.173,0.502-2.114,1.507-2.825c1.005-0.71,2.038-1.065,3.099-1.065
		C134.864,30.65,135.819,30.797,136.497,31.092"/>
	<path clip-path="url(#SVGID_2_)" fill="#FFFFFF" d="M154.491,31.092c0.678,0.295,1.312,0.737,1.901,1.326l-1.769,1.769
		c-0.59-0.708-1.414-1.062-2.476-1.062c-1.061,0-1.738,0.251-2.033,0.752s-0.295,0.928,0,1.281c0.295,0.355,0.973,0.62,2.033,0.796
		c1.12,0.118,2.137,0.487,3.05,1.106c0.914,0.618,1.371,1.605,1.371,2.961c0,1.061-0.488,1.974-1.464,2.741
		c-0.976,0.768-2.111,1.149-3.408,1.149c-1.231,0-2.26-0.176-3.085-0.53c-0.825-0.354-1.532-0.824-2.122-1.415l1.769-1.768
		c0.588,0.707,1.59,1.12,3.005,1.238c1.179,0,1.915-0.251,2.206-0.752c0.292-0.5,0.292-1.001,0-1.503
		c-0.291-0.5-1.027-0.81-2.206-0.928c-1.061-0.118-2.033-0.442-2.918-0.973c-0.883-0.53-1.325-1.443-1.325-2.74
		c0-1.173,0.502-2.114,1.507-2.825c1.005-0.71,2.038-1.065,3.099-1.065C152.858,30.65,153.813,30.797,154.491,31.092"/>
	<polygon clip-path="url(#SVGID_2_)" fill="#FFFFFF" points="158.994,43.911 158.994,30.659 168.736,30.649 168.736,33.125 
		161.646,33.125 161.646,35.955 166.959,35.955 166.959,38.421 161.646,38.421 161.646,41.436 168.719,41.436 168.719,43.911 	"/>
	<rect x="171.496" y="30.641" clip-path="url(#SVGID_2_)" fill="#FFFFFF" width="2.644" height="13.271"/>
	<polygon clip-path="url(#SVGID_2_)" fill="#FFFFFF" points="176.892,43.911 176.892,30.649 177.775,30.649 186.086,38.96 
		186.086,30.649 188.738,30.649 188.738,43.911 187.766,43.911 179.544,35.689 179.544,43.911 	"/>
	<polygon clip-path="url(#SVGID_2_)" fill="#FFFFFF" points="191.543,43.911 191.543,30.659 201.285,30.649 201.285,33.125 
		194.194,33.125 194.194,35.955 199.508,35.955 199.508,38.421 194.194,38.421 194.194,41.436 201.268,41.436 201.268,43.911 	"/>
	<path clip-path="url(#SVGID_2_)" fill="#FFFFFF" d="M64.845,29.124c7.08,13.132,7.431,23.313,7.442,23.683
		c2.968-4.53,4.7-9.944,4.7-15.764c0-15.91-12.894-28.806-28.804-28.807C48.184,8.237,57.632,15.747,64.845,29.124"/>
	<path clip-path="url(#SVGID_2_)" fill="#FFFFFF" d="M47.955,55.788c-14.655-0.05-23.556-2.86-23.864-2.959
		c5.147,7.839,14.011,13.018,24.09,13.018c10.08,0,18.944-5.179,24.091-13.018C71.961,52.927,62.62,55.837,47.955,55.788"/>
	<path clip-path="url(#SVGID_2_)" fill="#FFFFFF" d="M31.519,29.124C38.768,15.536,48.182,8.236,48.183,8.236h-0.002
		c-15.91,0-28.805,12.896-28.805,28.806c0,5.821,1.732,11.234,4.701,15.765C24.085,52.44,24.405,42.461,31.519,29.124"/>
	<polygon clip-path="url(#SVGID_2_)" fill="#FFFFFF" points="31.492,48.438 48.182,17.873 64.871,48.438 	"/>
	<path clip-path="url(#SVGID_2_)" fill="#FFFFFF" d="M169.624,63.184l3.516-8.789h1.758l3.51,8.783l-1.869,0.006l-0.527-1.347
		h-3.984l-0.527,1.347H169.624z M174.065,56.738l-1.336,3.341h2.637L174.065,56.738z"/>
	<path clip-path="url(#SVGID_2_)" fill="#FFFFFF" d="M181.105,59.457v3.728h-1.641v-5.69l1.641-0.176v0.534
		c0.395-0.353,0.863-0.528,1.406-0.528c0.742,0,1.309,0.226,1.699,0.674c0.391,0.449,0.586,0.968,0.586,1.554v3.633h-1.641v-3.223
		c0-0.392-0.098-0.693-0.293-0.908s-0.49-0.328-0.885-0.34C181.639,58.736,181.348,58.984,181.105,59.457"/>
	<path clip-path="url(#SVGID_2_)" fill="#FFFFFF" d="M188.702,63.184c-0.664,0-1.191-0.186-1.582-0.557s-0.586-0.849-0.586-1.435
		v-2.537h-0.879V57.33h0.879v-1.587l1.647-0.176v1.763h0.878v1.325h-0.878v2.302c0,0.312,0.064,0.533,0.195,0.66
		s0.3,0.189,0.507,0.189c0.062,0,0.209-0.024,0.439-0.075l0.346,1.178C189.389,63.092,189.065,63.184,188.702,63.184"/>
	<path clip-path="url(#SVGID_2_)" fill="#FFFFFF" d="M190.235,60.254c0-0.859,0.273-1.562,0.82-2.109
		c0.547-0.547,1.25-0.819,2.109-0.819s1.543,0.272,2.051,0.819c0.508,0.548,0.762,1.25,0.762,2.109v0.586h-4.043
		c0.039,0.313,0.176,0.557,0.41,0.733c0.234,0.176,0.508,0.263,0.82,0.263c0.547,0,1.035-0.156,1.466-0.468l0.937,0.937
		c-0.43,0.586-1.23,0.879-2.402,0.879c-0.859,0-1.562-0.272-2.109-0.819S190.235,61.114,190.235,60.254 M193.985,58.936
		c-0.234-0.176-0.508-0.264-0.82-0.264s-0.586,0.088-0.82,0.264c-0.234,0.177-0.352,0.421-0.352,0.732h2.344
		C194.337,59.356,194.22,59.112,193.985,58.936"/>
	<path clip-path="url(#SVGID_2_)" fill="#FFFFFF" d="M198.787,59.457v3.728h-1.641v-5.69l1.641-0.176v0.534
		c0.396-0.353,0.863-0.528,1.406-0.528c0.742,0,1.309,0.226,1.699,0.674c0.391,0.449,0.586,0.968,0.586,1.554v3.633h-1.641v-3.223
		c0-0.392-0.098-0.693-0.293-0.908s-0.489-0.328-0.885-0.34C199.32,58.736,199.029,58.984,198.787,59.457"/>
	<path clip-path="url(#SVGID_2_)" fill="#FFFFFF" d="M205.376,59.457v3.728h-1.641v-5.69l1.641-0.176v0.534
		c0.396-0.353,0.863-0.528,1.406-0.528c0.742,0,1.309,0.226,1.699,0.674c0.391,0.449,0.586,0.968,0.586,1.554v3.633h-1.641v-3.223
		c0-0.392-0.098-0.693-0.293-0.908s-0.489-0.328-0.885-0.34C205.909,58.736,205.618,58.984,205.376,59.457"/>
	<path clip-path="url(#SVGID_2_)" fill="#FFFFFF" d="M210.014,60.254c0-0.859,0.273-1.562,0.82-2.109
		c0.547-0.547,1.25-0.819,2.109-0.819s1.543,0.272,2.051,0.819c0.508,0.548,0.762,1.25,0.762,2.109v0.586h-4.043
		c0.039,0.313,0.176,0.557,0.41,0.733c0.234,0.176,0.508,0.263,0.82,0.263c0.547,0,1.035-0.156,1.465-0.468l0.938,0.937
		c-0.43,0.586-1.23,0.879-2.402,0.879c-0.859,0-1.562-0.272-2.109-0.819S210.014,61.114,210.014,60.254 M213.764,58.936
		c-0.234-0.176-0.508-0.264-0.82-0.264s-0.586,0.088-0.82,0.264c-0.234,0.177-0.352,0.421-0.352,0.732h2.344
		C214.115,59.356,213.998,59.112,213.764,58.936"/>
	<path clip-path="url(#SVGID_2_)" fill="#FFFFFF" d="M226.468,54.4v8.783h-1.641v-0.468c-0.437,0.312-0.867,0.468-1.289,0.468
		c-0.898,0-1.612-0.293-2.14-0.879s-0.791-1.269-0.791-2.05c0-0.782,0.264-1.465,0.791-2.051c0.527-0.587,1.241-0.88,2.14-0.88
		c0.586,0.039,1.016,0.197,1.289,0.476v-3.405L226.468,54.4z M224.827,60.781v-0.948c-0.078-0.656-0.488-1.041-1.229-1.155
		c-0.939,0.075-1.467,0.561-1.583,1.459c0.038,1.094,0.565,1.661,1.583,1.7C224.339,61.719,224.749,61.367,224.827,60.781"/>
	<path clip-path="url(#SVGID_2_)" fill="#FFFFFF" d="M227.478,60.254c0-0.859,0.273-1.562,0.82-2.109
		c0.547-0.547,1.25-0.819,2.109-0.819s1.543,0.272,2.051,0.819c0.508,0.548,0.762,1.25,0.762,2.109v0.586h-4.043
		c0.039,0.313,0.176,0.557,0.41,0.733c0.234,0.176,0.508,0.263,0.82,0.263c0.548,0,1.035-0.156,1.466-0.468l0.937,0.937
		c-0.43,0.586-1.229,0.879-2.402,0.879c-0.859,0-1.562-0.272-2.109-0.819S227.478,61.114,227.478,60.254 M231.228,58.936
		c-0.234-0.176-0.508-0.264-0.82-0.264s-0.586,0.088-0.82,0.264c-0.234,0.177-0.352,0.421-0.352,0.732h2.345
		C231.58,59.356,231.462,59.112,231.228,58.936"/>
	<path clip-path="url(#SVGID_2_)" fill="#FFFFFF" d="M238.505,63.184v-8.789h3.832c2.051,0,3.076,0.844,3.076,2.532
		c0,1.75-1.023,2.625-3.07,2.625h-2.08v3.632H238.505z M240.263,57.91h2.461c0.707-0.012,1.07-0.334,1.09-0.967
		c-0.02-0.578-0.377-0.879-1.071-0.901h-2.479V57.91z"/>
	<path clip-path="url(#SVGID_2_)" fill="#FFFFFF" d="M246.564,58.028c0.743-0.469,1.602-0.704,2.578-0.704
		c0.703,0,1.26,0.196,1.67,0.586c0.411,0.391,0.615,0.977,0.615,1.758v3.517h-1.641v-0.47c-0.477,0.313-0.906,0.47-1.289,0.47
		c-0.781,0-1.367-0.166-1.758-0.498s-0.586-0.791-0.586-1.377c0-0.548,0.185-1.035,0.554-1.466c0.369-0.43,0.966-0.645,1.79-0.645
		c0.379,0,0.81,0.118,1.289,0.352v-0.176c-0.008-0.429-0.32-0.664-0.937-0.703c-0.704,0-1.251,0.117-1.642,0.353L246.564,58.028z
		 M249.787,61.426v-0.661c-0.156-0.302-0.527-0.451-1.113-0.451c-0.703,0.078-1.074,0.351-1.113,0.819
		c0.039,0.466,0.41,0.718,1.113,0.757C249.26,61.89,249.631,61.735,249.787,61.426"/>
	<path clip-path="url(#SVGID_2_)" fill="#FFFFFF" d="M254.285,57.969c0.418-0.43,0.928-0.645,1.529-0.645
		c0.191,0,0.373,0.016,0.545,0.047l-0.258,1.618c-0.191-0.172-0.465-0.264-0.82-0.276c-0.398,0.027-0.73,0.317-0.996,0.867v3.604
		h-1.641v-5.69l1.641-0.175V57.969z"/>
	<path clip-path="url(#SVGID_2_)" fill="#FFFFFF" d="M257.493,55.33c0.156-0.159,0.367-0.238,0.633-0.238
		c0.281,0,0.5,0.079,0.656,0.238c0.157,0.158,0.234,0.354,0.234,0.588c0,0.235-0.077,0.43-0.234,0.586
		c-0.156,0.157-0.371,0.235-0.645,0.235s-0.488-0.078-0.645-0.235c-0.156-0.156-0.234-0.351-0.234-0.586
		C257.259,55.684,257.337,55.488,257.493,55.33 M258.958,57.319h-1.641v5.864h1.641V57.319z"/>
	<path clip-path="url(#SVGID_2_)" fill="#FFFFFF" d="M263.578,57.488c0.305,0.134,0.59,0.33,0.855,0.593l-0.914,1.03
		c-0.266-0.315-0.598-0.475-0.996-0.475c-0.395,0-0.658,0.074-0.791,0.22c-0.133,0.147-0.133,0.279,0,0.399
		c0.133,0.119,0.396,0.217,0.791,0.296c0.582,0.054,1.059,0.22,1.43,0.498c0.371,0.277,0.557,0.759,0.557,1.447
		c0,0.554-0.219,0.983-0.656,1.289c-0.438,0.305-0.947,0.456-1.529,0.456c-0.555,0-1.017-0.078-1.386-0.236
		c-0.369-0.159-0.687-0.371-0.952-0.636l0.908-1.026c0.266,0.317,0.678,0.5,1.236,0.551c0.449,0,0.739-0.073,0.87-0.219
		c0.131-0.147,0.15-0.293,0.059-0.44c-0.092-0.146-0.401-0.245-0.929-0.296c-0.477-0.055-0.913-0.201-1.31-0.438
		c-0.396-0.239-0.595-0.688-0.595-1.349c0-0.604,0.226-1.066,0.677-1.386c0.451-0.318,0.915-0.477,1.392-0.477
		C262.846,57.29,263.273,57.355,263.578,57.488"/>
	<polygon clip-path="url(#SVGID_2_)" fill="#FFFFFF" points="271.6,54.395 271.6,54.389 273.352,54.389 273.352,63.184 
		271.6,63.184 271.6,56.739 270.428,57.911 269.256,56.739 	"/>
	<polygon clip-path="url(#SVGID_2_)" fill="#FFFFFF" points="277.028,54.395 277.028,54.389 278.78,54.389 278.78,63.184 
		277.028,63.184 277.028,56.739 275.856,57.911 274.685,56.739 	"/>
	
		<line clip-path="url(#SVGID_2_)" fill="none" stroke="#FFFFFF" stroke-width="0.5" stroke-miterlimit="10" x1="83.143" y1="49.92" x2="83.141" y2="62.958"/>
	
		<line clip-path="url(#SVGID_2_)" fill="none" stroke="#FFFFFF" stroke-width="0.5" stroke-miterlimit="10" x1="82.886" y1="62.934" x2="166.565" y2="62.931"/>
</g>
</svg>
