<?xml version="1.0" encoding="utf-8"?>
<!-- Generator: Adobe Illustrator 16.0.0, SVG Export Plug-In . SVG Version: 6.00 Build 0)  -->
<!DOCTYPE svg PUBLIC "-//W3C//DTD SVG 1.1//EN" "http://www.w3.org/Graphics/SVG/1.1/DTD/svg11.dtd">
<svg version="1.1" id="Layer_1" xmlns="http://www.w3.org/2000/svg" xmlns:xlink="http://www.w3.org/1999/xlink" x="0px" y="0px"
	 width="298.678px" height="75px" viewBox="0 0 298.678 75" enable-background="new 0 0 298.678 75" xml:space="preserve">
<path fill="#FFFFFF" d="M82.933,25.107V11.392h5.981c3.199,0,4.801,1.317,4.801,3.95c0,2.731-1.598,4.097-4.792,4.097h-3.246v5.669
	H82.933z M85.677,16.878h3.84c1.104-0.019,1.671-0.521,1.701-1.509c-0.03-0.902-0.588-1.371-1.673-1.408h-3.868V16.878z"/>
<path fill="#FFFFFF" d="M103.806,19.128l3.42,5.979h-3.146l-3.283-5.669h-2.505v5.669h-2.744V11.392h5.98
	c3.2,0,4.802,1.317,4.802,3.95C106.33,17.323,105.488,18.585,103.806,19.128 M98.292,16.878h3.84
	c1.104-0.019,1.671-0.521,1.701-1.509c-0.03-0.902-0.588-1.371-1.673-1.408h-3.868V16.878z"/>
<path fill="#FFFFFF" d="M109.735,23.137c-1.311-1.313-1.966-2.943-1.966-4.887c0-1.952,0.655-3.582,1.966-4.894
	c1.312-1.31,2.941-1.966,4.893-1.966s3.581,0.656,4.892,1.966c1.312,1.312,1.966,2.941,1.966,4.894c0,1.95-0.654,3.581-1.966,4.892
	c-1.311,1.311-2.94,1.966-4.892,1.966S111.046,24.451,109.735,23.137 M114.636,22.547c1.213,0,2.201-0.411,2.963-1.234
	c0.762-0.822,1.144-1.844,1.144-3.062c0-1.22-0.382-2.241-1.144-3.064s-1.756-1.233-2.98-1.233c-1.214,0-2.201,0.41-2.964,1.233
	c-0.762,0.823-1.143,1.845-1.143,3.064c0,1.219,0.381,2.24,1.143,3.062C112.417,22.136,113.411,22.547,114.636,22.547"/>
<polygon fill="#FFFFFF" points="134.249,11.392 134.249,13.953 129.677,13.953 129.677,25.106 126.934,25.106 126.934,13.953 
	122.361,13.953 122.361,11.392 "/>
<polygon fill="#FFFFFF" points="136.064,25.107 136.064,11.4 146.141,11.392 146.141,13.952 138.808,13.952 138.808,16.878 
	144.303,16.878 144.303,19.429 138.808,19.429 138.808,22.547 146.124,22.547 146.124,25.107 "/>
<path fill="#FFFFFF" d="M150.009,23.137c-1.313-1.308-1.97-2.946-1.97-4.915c0.006-1.926,0.664-3.546,1.975-4.86
	c1.312-1.312,2.937-1.971,4.874-1.971c1.957,0,3.636,0.61,5.038,1.829l-1.828,2.003c-0.934-0.731-2.003-1.097-3.21-1.097
	c-1.23,0.006-2.224,0.39-2.977,1.151c-0.753,0.763-1.129,1.737-1.129,2.927c0.006,1.273,0.387,2.286,1.143,3.036
	s1.75,1.125,2.98,1.125c1.231,0,2.296-0.363,3.191-1.09l1.828,2.003c-1.396,1.22-3.075,1.829-5.038,1.829
	C152.949,25.102,151.323,24.444,150.009,23.137"/>
<polygon fill="#FFFFFF" points="173.885,11.392 173.885,13.953 169.312,13.953 169.312,25.106 166.569,25.106 166.569,13.953 
	161.997,13.953 161.997,11.392 "/>
<rect x="175.736" y="11.382" fill="#FFFFFF" width="2.733" height="13.726"/>
<path fill="#FFFFFF" d="M182.308,23.137c-1.312-1.313-1.967-2.943-1.967-4.887c0-1.952,0.655-3.582,1.967-4.894
	c1.312-1.31,2.94-1.966,4.893-1.966c1.951,0,3.58,0.656,4.893,1.966c1.311,1.312,1.966,2.941,1.966,4.894
	c0,1.95-0.655,3.581-1.966,4.892c-1.312,1.311-2.941,1.966-4.893,1.966C185.248,25.107,183.618,24.451,182.308,23.137
	 M187.208,22.547c1.214,0,2.201-0.411,2.963-1.234c0.764-0.822,1.144-1.844,1.144-3.062c0-1.22-0.38-2.241-1.144-3.064
	c-0.762-0.823-1.756-1.233-2.98-1.233c-1.213,0-2.2,0.41-2.962,1.233c-0.764,0.823-1.145,1.845-1.145,3.064
	c0,1.219,0.381,2.24,1.145,3.062C184.989,22.136,185.983,22.547,187.208,22.547"/>
<polygon fill="#FFFFFF" points="195.909,25.107 195.909,11.392 196.823,11.392 205.419,19.986 205.419,11.392 208.162,11.392 
	208.162,25.107 207.156,25.107 198.652,16.604 198.652,25.107 "/>
<path fill="#FFFFFF" d="M218.326,23.137c-1.312-1.308-1.971-2.946-1.971-4.915c0.006-1.926,0.664-3.546,1.976-4.86
	c1.311-1.312,2.936-1.971,4.874-1.971c1.957,0,3.636,0.61,5.038,1.829l-1.828,2.003c-0.935-0.731-2.003-1.097-3.21-1.097
	c-1.231,0.006-2.225,0.39-2.978,1.151c-0.753,0.763-1.129,1.737-1.129,2.927c0.006,1.273,0.387,2.286,1.144,3.036
	c0.756,0.75,1.75,1.125,2.98,1.125c1.231,0,2.295-0.363,3.191-1.09l1.828,2.003c-1.396,1.22-3.075,1.829-5.038,1.829
	C221.267,25.102,219.641,24.444,218.326,23.137"/>
<rect x="231.01" y="11.382" fill="#FFFFFF" width="2.734" height="13.726"/>
<polygon fill="#FFFFFF" points="238.394,11.392 242.29,21.439 246.258,11.392 249.184,11.392 243.706,25.106 240.963,25.106 
	235.468,11.392 "/>
<rect x="251.274" y="11.382" fill="#FFFFFF" width="2.733" height="13.726"/>
<polygon fill="#FFFFFF" points="259.344,11.392 259.344,22.547 266.659,22.547 266.659,25.106 256.601,25.106 256.601,11.392 "/>
<polygon fill="#FFFFFF" points="268.693,25.107 268.693,11.4 278.771,11.392 278.771,13.952 271.437,13.952 271.437,16.878 
	276.933,16.878 276.933,19.429 271.437,19.429 271.437,22.547 278.752,22.547 278.752,25.107 "/>
<path fill="#FF7F2F" d="M82.896,44.221V30.959h5.781c3.095,0,4.642,1.273,4.642,3.819c0,2.641-1.544,3.962-4.633,3.962h-3.138v5.479
	L82.896,44.221L82.896,44.221z M85.547,36.265h3.713c1.067-0.018,1.615-0.504,1.644-1.459c-0.028-0.872-0.567-1.325-1.617-1.361
	h-3.739V36.265z"/>
<path fill="#FF7F2F" d="M94.664,44.222l5.304-13.262h2.652l5.296,13.253l-2.821,0.009l-0.795-2.034h-6.012l-0.796,2.034H94.664z
	 M101.365,34.497l-2.017,5.039h3.979L101.365,34.497z"/>
<path fill="#FF7F2F" d="M118.333,38.438l3.306,5.782h-3.041l-3.174-5.479h-2.422v5.479h-2.652V30.959h5.781
	c3.095,0,4.642,1.273,4.642,3.819C120.772,36.694,119.959,37.915,118.333,38.438 M113.001,36.265h3.713
	c1.066-0.018,1.615-0.504,1.644-1.459c-0.028-0.872-0.567-1.325-1.617-1.361h-3.739V36.265z"/>
<rect x="123.923" y="30.951" fill="#FF7F2F" width="2.644" height="13.271"/>
<path fill="#FF7F2F" d="M136.497,31.401c0.678,0.296,1.311,0.737,1.899,1.326l-1.768,1.77c-0.589-0.708-1.414-1.062-2.476-1.062
	c-1.061,0-1.738,0.251-2.032,0.752c-0.295,0.501-0.295,0.929,0,1.281c0.294,0.355,0.972,0.62,2.032,0.796
	c1.119,0.118,2.137,0.487,3.051,1.106c0.913,0.617,1.37,1.604,1.37,2.961c0,1.061-0.487,1.974-1.464,2.741
	c-0.975,0.768-2.11,1.148-3.407,1.148c-1.231,0-2.261-0.176-3.085-0.53c-0.826-0.354-1.533-0.823-2.122-1.415l1.768-1.768
	c0.589,0.707,1.591,1.12,3.005,1.238c1.179,0,1.915-0.251,2.207-0.752c0.292-0.5,0.292-1.001,0-1.503
	c-0.292-0.5-1.028-0.811-2.207-0.929c-1.06-0.118-2.032-0.441-2.917-0.973c-0.883-0.53-1.325-1.443-1.325-2.74
	c0-1.173,0.502-2.114,1.508-2.825c1.005-0.71,2.037-1.064,3.099-1.064C134.864,30.96,135.819,31.106,136.497,31.401"/>
<path fill="#FF7F2F" d="M154.491,31.401c0.678,0.296,1.312,0.737,1.9,1.326l-1.769,1.77c-0.59-0.708-1.414-1.062-2.477-1.062
	c-1.061,0-1.737,0.251-2.033,0.752c-0.295,0.501-0.295,0.929,0,1.281c0.296,0.355,0.974,0.62,2.033,0.796
	c1.12,0.118,2.138,0.487,3.05,1.106c0.914,0.617,1.371,1.604,1.371,2.961c0,1.061-0.487,1.974-1.464,2.741
	c-0.976,0.768-2.11,1.148-3.408,1.148c-1.23,0-2.26-0.176-3.085-0.53c-0.824-0.354-1.531-0.823-2.122-1.415l1.77-1.768
	c0.588,0.707,1.59,1.12,3.005,1.238c1.179,0,1.915-0.251,2.206-0.752c0.292-0.5,0.292-1.001,0-1.503
	c-0.291-0.5-1.027-0.811-2.206-0.929c-1.061-0.118-2.033-0.441-2.918-0.973c-0.883-0.53-1.325-1.443-1.325-2.74
	c0-1.173,0.502-2.114,1.507-2.825c1.006-0.71,2.038-1.064,3.1-1.064C152.858,30.96,153.813,31.106,154.491,31.401"/>
<polygon fill="#FF7F2F" points="158.994,44.221 158.994,30.969 168.736,30.959 168.736,33.436 161.646,33.436 161.646,36.265 
	166.959,36.265 166.959,38.73 161.646,38.73 161.646,41.746 168.719,41.746 168.719,44.221 "/>
<rect x="171.496" y="30.951" fill="#FF7F2F" width="2.644" height="13.271"/>
<polygon fill="#FF7F2F" points="176.892,44.221 176.892,30.959 177.775,30.959 186.086,39.271 186.086,30.959 188.738,30.959 
	188.738,44.221 187.766,44.221 179.544,36 179.544,44.221 "/>
<polygon fill="#FF7F2F" points="191.543,44.221 191.543,30.969 201.285,30.959 201.285,33.436 194.194,33.436 194.194,36.265 
	199.508,36.265 199.508,38.73 194.194,38.73 194.194,41.746 201.268,41.746 201.268,44.221 "/>
<path fill="#FFFFFF" d="M76.965,37.351c0,15.897-12.885,28.784-28.782,28.784c-15.898,0-28.784-12.887-28.784-28.784
	c0-15.896,12.886-28.783,28.784-28.783C64.08,8.567,76.965,21.454,76.965,37.351"/>
<path fill="#FF7F2F" d="M64.845,29.434c7.08,13.132,7.431,23.313,7.442,23.684c2.968-4.53,4.699-9.944,4.699-15.765
	c0-15.91-12.894-28.806-28.804-28.807C48.184,8.547,57.632,16.057,64.845,29.434"/>
<path fill="#FF7F2F" d="M47.955,56.098c-14.655-0.05-23.557-2.86-23.864-2.959c5.146,7.839,14.011,13.019,24.09,13.019
	c10.08,0,18.944-5.18,24.091-13.019C71.961,53.236,62.62,56.146,47.955,56.098"/>
<path fill="#FF7F2F" d="M31.519,29.434C38.768,15.846,48.182,8.546,48.183,8.546h-0.002c-15.91,0-28.805,12.896-28.805,28.806
	c0,5.821,1.731,11.234,4.701,15.766C24.085,52.75,24.405,42.771,31.519,29.434"/>
<polygon fill="#002D73" points="31.492,48.749 48.182,18.183 64.871,48.749 "/>
<path fill="#FFFFFF" d="M169.624,63.494l3.516-8.789h1.758l3.511,8.782l-1.869,0.007l-0.527-1.348h-3.984l-0.526,1.348H169.624z
	 M174.065,57.048l-1.336,3.341h2.638L174.065,57.048z"/>
<path fill="#FFFFFF" d="M181.105,59.767v3.729h-1.641v-5.69l1.641-0.176v0.534c0.396-0.354,0.863-0.528,1.406-0.528
	c0.742,0,1.309,0.226,1.699,0.674c0.391,0.449,0.586,0.968,0.586,1.554v3.634h-1.642v-3.224c0-0.392-0.098-0.692-0.293-0.907
	c-0.194-0.216-0.489-0.328-0.885-0.341C181.639,59.046,181.348,59.294,181.105,59.767"/>
<path fill="#FFFFFF" d="M188.702,63.494c-0.664,0-1.191-0.187-1.582-0.558c-0.392-0.371-0.586-0.849-0.586-1.435v-2.537h-0.88V57.64
	h0.88v-1.587l1.646-0.176v1.763h0.878v1.325h-0.878v2.302c0,0.312,0.064,0.533,0.195,0.66s0.3,0.189,0.507,0.189
	c0.062,0,0.209-0.024,0.438-0.075l0.347,1.178C189.389,63.401,189.065,63.494,188.702,63.494"/>
<path fill="#FFFFFF" d="M190.235,60.563c0-0.858,0.273-1.562,0.82-2.108s1.25-0.819,2.109-0.819c0.858,0,1.543,0.272,2.051,0.819
	c0.508,0.548,0.762,1.25,0.762,2.108v0.586h-4.043c0.039,0.313,0.176,0.558,0.41,0.733s0.508,0.263,0.82,0.263
	c0.547,0,1.035-0.155,1.466-0.468l0.937,0.938c-0.43,0.586-1.229,0.879-2.401,0.879c-0.859,0-1.562-0.272-2.109-0.819
	S190.235,61.424,190.235,60.563 M193.985,59.246c-0.233-0.177-0.508-0.265-0.819-0.265c-0.312,0-0.586,0.088-0.82,0.265
	s-0.352,0.421-0.352,0.731h2.344C194.337,59.667,194.22,59.422,193.985,59.246"/>
<path fill="#FFFFFF" d="M198.787,59.767v3.729h-1.642v-5.69l1.642-0.176v0.534c0.396-0.354,0.862-0.528,1.405-0.528
	c0.742,0,1.31,0.226,1.699,0.674c0.392,0.449,0.586,0.968,0.586,1.554v3.634h-1.641v-3.224c0-0.392-0.099-0.692-0.293-0.907
	c-0.195-0.216-0.489-0.328-0.885-0.341C199.32,59.046,199.029,59.294,198.787,59.767"/>
<path fill="#FFFFFF" d="M205.376,59.767v3.729h-1.642v-5.69l1.642-0.176v0.534c0.396-0.354,0.863-0.528,1.406-0.528
	c0.741,0,1.309,0.226,1.698,0.674c0.392,0.449,0.586,0.968,0.586,1.554v3.634h-1.641v-3.224c0-0.392-0.098-0.692-0.293-0.907
	c-0.195-0.216-0.489-0.328-0.885-0.341C205.909,59.046,205.618,59.294,205.376,59.767"/>
<path fill="#FFFFFF" d="M210.014,60.563c0-0.858,0.273-1.562,0.82-2.108s1.25-0.819,2.108-0.819c0.859,0,1.543,0.272,2.052,0.819
	c0.508,0.548,0.762,1.25,0.762,2.108v0.586h-4.043c0.039,0.313,0.176,0.558,0.41,0.733c0.233,0.176,0.508,0.263,0.819,0.263
	c0.548,0,1.035-0.155,1.466-0.468l0.938,0.938c-0.43,0.586-1.229,0.879-2.402,0.879c-0.858,0-1.562-0.272-2.108-0.819
	S210.014,61.424,210.014,60.563 M213.764,59.246c-0.234-0.177-0.508-0.265-0.82-0.265c-0.312,0-0.586,0.088-0.819,0.265
	c-0.234,0.177-0.353,0.421-0.353,0.731h2.345C214.115,59.667,213.998,59.422,213.764,59.246"/>
<path fill="#FFFFFF" d="M226.468,54.71v8.783h-1.641v-0.469c-0.438,0.312-0.867,0.469-1.289,0.469c-0.898,0-1.612-0.293-2.141-0.879
	c-0.527-0.587-0.791-1.27-0.791-2.051s0.265-1.465,0.791-2.051c0.527-0.587,1.241-0.88,2.141-0.88
	c0.586,0.039,1.016,0.197,1.289,0.476v-3.404L226.468,54.71z M224.827,61.091v-0.948c-0.078-0.656-0.488-1.041-1.229-1.154
	c-0.938,0.074-1.467,0.561-1.583,1.459c0.038,1.094,0.565,1.66,1.583,1.699C224.339,62.028,224.749,61.677,224.827,61.091"/>
<path fill="#FFFFFF" d="M227.478,60.563c0-0.858,0.273-1.562,0.82-2.108s1.25-0.819,2.109-0.819c0.858,0,1.543,0.272,2.051,0.819
	c0.508,0.548,0.762,1.25,0.762,2.108v0.586h-4.043c0.039,0.313,0.176,0.558,0.41,0.733c0.233,0.176,0.508,0.263,0.82,0.263
	c0.548,0,1.034-0.155,1.466-0.468l0.937,0.938c-0.43,0.586-1.229,0.879-2.401,0.879c-0.859,0-1.562-0.272-2.109-0.819
	S227.478,61.424,227.478,60.563 M231.228,59.246c-0.233-0.177-0.508-0.265-0.819-0.265c-0.312,0-0.587,0.088-0.82,0.265
	c-0.234,0.177-0.353,0.421-0.353,0.731h2.346C231.58,59.667,231.462,59.422,231.228,59.246"/>
<path fill="#FFFFFF" d="M238.505,63.494v-8.789h3.832c2.051,0,3.076,0.844,3.076,2.531c0,1.75-1.023,2.625-3.07,2.625h-2.08v3.633
	H238.505z M240.263,58.22h2.461c0.707-0.012,1.07-0.334,1.09-0.967c-0.02-0.578-0.377-0.879-1.07-0.901h-2.479L240.263,58.22
	L240.263,58.22z"/>
<path fill="#FFFFFF" d="M246.564,58.338c0.743-0.469,1.603-0.704,2.578-0.704c0.703,0,1.26,0.196,1.67,0.586
	c0.411,0.391,0.615,0.978,0.615,1.758v3.518h-1.641v-0.471c-0.478,0.313-0.906,0.471-1.289,0.471c-0.781,0-1.367-0.166-1.759-0.498
	c-0.391-0.332-0.586-0.791-0.586-1.377c0-0.548,0.186-1.035,0.555-1.467c0.369-0.43,0.966-0.645,1.79-0.645
	c0.379,0,0.81,0.118,1.289,0.352v-0.176c-0.009-0.429-0.32-0.664-0.938-0.703c-0.704,0-1.251,0.117-1.642,0.354L246.564,58.338z
	 M249.787,61.735v-0.66c-0.156-0.303-0.527-0.451-1.113-0.451c-0.703,0.078-1.074,0.351-1.113,0.818
	c0.039,0.467,0.41,0.719,1.113,0.758C249.26,62.2,249.631,62.045,249.787,61.735"/>
<path fill="#FFFFFF" d="M254.285,58.278c0.418-0.43,0.928-0.645,1.528-0.645c0.191,0,0.373,0.016,0.545,0.047l-0.258,1.618
	c-0.19-0.172-0.465-0.264-0.819-0.276c-0.398,0.027-0.73,0.317-0.996,0.867v3.604h-1.642v-5.69l1.642-0.175V58.278z"/>
<path fill="#FFFFFF" d="M257.493,55.64c0.155-0.159,0.366-0.238,0.633-0.238c0.281,0,0.5,0.079,0.656,0.238
	c0.156,0.158,0.233,0.354,0.233,0.588c0,0.235-0.077,0.431-0.233,0.586c-0.156,0.157-0.371,0.235-0.646,0.235
	c-0.273,0-0.488-0.078-0.645-0.235c-0.156-0.155-0.234-0.351-0.234-0.586C257.259,55.994,257.337,55.798,257.493,55.64
	 M258.958,57.629h-1.642v5.864h1.642V57.629z"/>
<path fill="#FFFFFF" d="M263.578,57.798c0.305,0.134,0.59,0.33,0.854,0.593l-0.914,1.03c-0.266-0.315-0.598-0.476-0.996-0.476
	c-0.395,0-0.657,0.074-0.791,0.221c-0.133,0.146-0.133,0.278,0,0.398c0.134,0.119,0.396,0.218,0.791,0.296
	c0.582,0.055,1.06,0.221,1.431,0.498s0.557,0.76,0.557,1.447c0,0.554-0.219,0.983-0.656,1.289c-0.438,0.305-0.946,0.456-1.528,0.456
	c-0.556,0-1.018-0.078-1.387-0.236s-0.687-0.371-0.952-0.636l0.908-1.026c0.267,0.317,0.679,0.5,1.236,0.552
	c0.449,0,0.739-0.073,0.87-0.22s0.149-0.293,0.059-0.439c-0.092-0.146-0.4-0.245-0.929-0.296c-0.478-0.056-0.913-0.201-1.311-0.438
	c-0.396-0.238-0.595-0.688-0.595-1.349c0-0.604,0.227-1.066,0.677-1.386c0.451-0.318,0.915-0.478,1.393-0.478
	C262.846,57.6,263.273,57.666,263.578,57.798"/>
<polygon fill="#FFFFFF" points="271.6,54.705 271.6,54.699 273.352,54.699 273.352,63.494 271.6,63.494 271.6,57.049 
	270.428,58.221 269.256,57.049 "/>
<polygon fill="#FFFFFF" points="277.028,54.705 277.028,54.699 278.78,54.699 278.78,63.494 277.028,63.494 277.028,57.049 
	275.856,58.221 274.685,57.049 "/>
<line fill="none" stroke="#FFFFFF" stroke-width="0.5" stroke-miterlimit="10" x1="83.143" y1="50.229" x2="83.141" y2="63.268"/>
<line fill="none" stroke="#FFFFFF" stroke-width="0.5" stroke-miterlimit="10" x1="82.886" y1="63.244" x2="166.565" y2="63.241"/>
</svg>
